<mxfile host="Electron" agent="Mozilla/5.0 (Windows NT 10.0; Win64; x64) AppleWebKit/537.36 (KHTML, like Gecko) draw.io/25.0.2 Chrome/128.0.6613.186 Electron/32.2.5 Safari/537.36" version="25.0.2">
  <diagram name="Page-1" id="bBteYRtzpX04Bn5RVgAb">
    <mxGraphModel dx="2003" dy="2082" grid="1" gridSize="10" guides="1" tooltips="1" connect="1" arrows="1" fold="1" page="1" pageScale="1" pageWidth="827" pageHeight="1169" math="0" shadow="0">
      <root>
        <mxCell id="0" />
        <mxCell id="1" parent="0" />
        <mxCell id="6EpPuuiLsRsuY8Mta1PC-2" value="" style="edgeStyle=orthogonalEdgeStyle;rounded=0;orthogonalLoop=1;jettySize=auto;html=1;" edge="1" parent="1" source="FQ0GjCT3HpPSmMhEPNuH-2" target="6EpPuuiLsRsuY8Mta1PC-1">
          <mxGeometry relative="1" as="geometry" />
        </mxCell>
        <mxCell id="FQ0GjCT3HpPSmMhEPNuH-2" value="เริ่ม" style="strokeWidth=2;html=1;shape=mxgraph.flowchart.terminator;whiteSpace=wrap;" parent="1" vertex="1">
          <mxGeometry x="326" y="-1020" width="176" height="60" as="geometry" />
        </mxCell>
        <mxCell id="6EpPuuiLsRsuY8Mta1PC-4" value="" style="edgeStyle=orthogonalEdgeStyle;rounded=0;orthogonalLoop=1;jettySize=auto;html=1;" edge="1" parent="1" source="6EpPuuiLsRsuY8Mta1PC-1" target="6EpPuuiLsRsuY8Mta1PC-3">
          <mxGeometry relative="1" as="geometry" />
        </mxCell>
        <mxCell id="6EpPuuiLsRsuY8Mta1PC-1" value="สร้างตัวแปร year" style="whiteSpace=wrap;html=1;strokeWidth=2;" vertex="1" parent="1">
          <mxGeometry x="326" y="-880" width="176" height="60" as="geometry" />
        </mxCell>
        <mxCell id="6EpPuuiLsRsuY8Mta1PC-6" value="" style="edgeStyle=orthogonalEdgeStyle;rounded=0;orthogonalLoop=1;jettySize=auto;html=1;" edge="1" parent="1" source="6EpPuuiLsRsuY8Mta1PC-3" target="6EpPuuiLsRsuY8Mta1PC-5">
          <mxGeometry relative="1" as="geometry" />
        </mxCell>
        <mxCell id="6EpPuuiLsRsuY8Mta1PC-3" value="รับค่ามาไว้ในตัวแปร year" style="shape=parallelogram;perimeter=parallelogramPerimeter;whiteSpace=wrap;html=1;fixedSize=1;strokeWidth=2;" vertex="1" parent="1">
          <mxGeometry x="326" y="-740" width="176" height="60" as="geometry" />
        </mxCell>
        <mxCell id="6EpPuuiLsRsuY8Mta1PC-8" value="" style="edgeStyle=orthogonalEdgeStyle;rounded=0;orthogonalLoop=1;jettySize=auto;html=1;" edge="1" parent="1" source="6EpPuuiLsRsuY8Mta1PC-5" target="6EpPuuiLsRsuY8Mta1PC-7">
          <mxGeometry relative="1" as="geometry" />
        </mxCell>
        <mxCell id="6EpPuuiLsRsuY8Mta1PC-10" value="" style="edgeStyle=orthogonalEdgeStyle;rounded=0;orthogonalLoop=1;jettySize=auto;html=1;" edge="1" parent="1" source="6EpPuuiLsRsuY8Mta1PC-5" target="6EpPuuiLsRsuY8Mta1PC-9">
          <mxGeometry relative="1" as="geometry" />
        </mxCell>
        <mxCell id="6EpPuuiLsRsuY8Mta1PC-5" value="year % 4 != 0 ||&amp;nbsp;&lt;div&gt;year % 4 == 0 &amp;amp;&amp;amp; year % 100 == 0&lt;/div&gt;&lt;div&gt;&amp;nbsp;&amp;amp;&amp;amp; year % 400 != 0&lt;/div&gt;" style="rhombus;whiteSpace=wrap;html=1;strokeWidth=2;" vertex="1" parent="1">
          <mxGeometry x="289" y="-620" width="250" height="110" as="geometry" />
        </mxCell>
        <mxCell id="6EpPuuiLsRsuY8Mta1PC-14" value="" style="edgeStyle=orthogonalEdgeStyle;rounded=0;orthogonalLoop=1;jettySize=auto;html=1;" edge="1" parent="1" source="6EpPuuiLsRsuY8Mta1PC-7" target="6EpPuuiLsRsuY8Mta1PC-13">
          <mxGeometry relative="1" as="geometry" />
        </mxCell>
        <mxCell id="6EpPuuiLsRsuY8Mta1PC-7" value="แสดงค่า&amp;nbsp;February has 28 days" style="shape=parallelogram;perimeter=parallelogramPerimeter;whiteSpace=wrap;html=1;fixedSize=1;strokeWidth=2;" vertex="1" parent="1">
          <mxGeometry x="302" y="-424" width="224" height="74" as="geometry" />
        </mxCell>
        <mxCell id="6EpPuuiLsRsuY8Mta1PC-12" value="" style="edgeStyle=orthogonalEdgeStyle;rounded=0;orthogonalLoop=1;jettySize=auto;html=1;" edge="1" parent="1" source="6EpPuuiLsRsuY8Mta1PC-9" target="6EpPuuiLsRsuY8Mta1PC-11">
          <mxGeometry relative="1" as="geometry" />
        </mxCell>
        <mxCell id="6EpPuuiLsRsuY8Mta1PC-9" value="year % 4 == 0 &amp;amp;&amp;amp; year % 100 != 0&amp;nbsp;&lt;div&gt;|| year % 4 == 0 &amp;amp;&amp;amp; year % 400 == 0&lt;/div&gt;" style="rhombus;whiteSpace=wrap;html=1;strokeWidth=2;" vertex="1" parent="1">
          <mxGeometry x="630" y="-635" width="271" height="140" as="geometry" />
        </mxCell>
        <mxCell id="6EpPuuiLsRsuY8Mta1PC-15" style="edgeStyle=orthogonalEdgeStyle;rounded=0;orthogonalLoop=1;jettySize=auto;html=1;entryX=1;entryY=0.5;entryDx=0;entryDy=0;exitX=0.5;exitY=1;exitDx=0;exitDy=0;" edge="1" parent="1" source="6EpPuuiLsRsuY8Mta1PC-11" target="6EpPuuiLsRsuY8Mta1PC-13">
          <mxGeometry relative="1" as="geometry" />
        </mxCell>
        <mxCell id="6EpPuuiLsRsuY8Mta1PC-11" value="แสดงค่า&amp;nbsp;February has 29 days" style="shape=parallelogram;perimeter=parallelogramPerimeter;whiteSpace=wrap;html=1;fixedSize=1;strokeWidth=2;" vertex="1" parent="1">
          <mxGeometry x="653.5" y="-430" width="224" height="74" as="geometry" />
        </mxCell>
        <mxCell id="6EpPuuiLsRsuY8Mta1PC-17" value="" style="edgeStyle=orthogonalEdgeStyle;rounded=0;orthogonalLoop=1;jettySize=auto;html=1;" edge="1" parent="1" source="6EpPuuiLsRsuY8Mta1PC-13" target="6EpPuuiLsRsuY8Mta1PC-16">
          <mxGeometry relative="1" as="geometry" />
        </mxCell>
        <mxCell id="6EpPuuiLsRsuY8Mta1PC-13" value="" style="ellipse;whiteSpace=wrap;html=1;aspect=fixed;" vertex="1" parent="1">
          <mxGeometry x="399" y="-260" width="30" height="30" as="geometry" />
        </mxCell>
        <mxCell id="6EpPuuiLsRsuY8Mta1PC-16" value="จบ" style="strokeWidth=2;html=1;shape=mxgraph.flowchart.terminator;whiteSpace=wrap;" vertex="1" parent="1">
          <mxGeometry x="326" y="-150" width="176" height="60" as="geometry" />
        </mxCell>
      </root>
    </mxGraphModel>
  </diagram>
</mxfile>
